<svg viewBox="0 0 503 283" height="256" fill="none" xmlns="http://www.w3.org/2000/svg">
    <path fill="#D7EFFE" d="M169.13 222.3c38.19 0 69.15-30.96 69.15-69.15 0-38.19-30.96-69.15-69.15-69.15-38.191 0-69.15 30.96-69.15 69.15 0 38.19 30.959 69.15 69.15 69.15z"/>
    <path fill="#D7EFFE" d="M99.98 222.29c22.08 0 39.98-17.9 39.98-39.98s-17.9-39.98-39.98-39.98S60 160.23 60 182.31s17.9 39.98 39.98 39.98zM249.85 222.29c19.115 0 34.61-15.495 34.61-34.61 0-19.115-15.495-34.61-34.61-34.61-19.115 0-34.61 15.495-34.61 34.61 0 19.115 15.495 34.61 34.61 34.61z"/>
    <path fill="#D7EFFE" d="M249.85 222.29H100.14v-40.38h129l20.71 40.38z"/>
    <path fill="#083041" d="M188.845 107.687v7.58a7.571 7.571 0 015.36 12.92 64.15 64.15 0 01-10.36 7.13c-7 4-10.87 4.79-12.44 4.93.16-1.72 1.07-5.29 4.17-11a67.184 67.184 0 017.9-11.74 7.548 7.548 0 015.37-2.24v-7.58a15.01 15.01 0 00-10.7 4.42c-3.93 3.93-19.59 26.77-12.44 33.87a7.004 7.004 0 005.18 1.82c9.56 0 25.48-11.09 28.69-14.3a15.115 15.115 0 003.269-16.494 15.117 15.117 0 00-13.999-9.316zM254.635 167.197a14.991 14.991 0 00-10.709-4.43v7.56a7.568 7.568 0 016.988 4.674 7.572 7.572 0 01-1.639 8.246 64.666 64.666 0 01-10.349 7.13c-7 4-10.871 4.78-12.441 4.93.16-1.73 1.071-5.3 4.181-11a67.094 67.094 0 017.89-11.74 7.524 7.524 0 015.36-2.21v-7.59a14.995 14.995 0 00-10.69 4.43c-3.93 3.93-19.591 26.76-12.481 33.87a7.01 7.01 0 005.19 1.82c9.55 0 25.481-11.09 28.681-14.3a15.14 15.14 0 00.019-21.39z"/>
    <path fill="#3DDC84" d="M303.776 88.657a3.284 3.284 0 01.491-5.05 3.28 3.28 0 014.139 5.05 3.282 3.282 0 01-4.59 0h-.04zm-25.39-25.39a3.263 3.263 0 01-.706-3.563 3.27 3.27 0 115.336 3.563h-.05a3.272 3.272 0 01-4.58 0zm-9.54 90.12l42-42a38.354 38.354 0 007.63-35.77l12.57-3.36a1.347 1.347 0 001.027-1.117 1.349 1.349 0 00-.027-.533 1.37 1.37 0 00-1.125-1.028 1.358 1.358 0 00-.535.028l-12.7 3.41a40.868 40.868 0 00-23.62-23.62l3.41-12.69c.044-.175.054-.356.028-.535a1.376 1.376 0 00-.542-.9 1.366 1.366 0 00-.486-.225 1.341 1.341 0 00-1.66 1l-3.4 12.52a38.372 38.372 0 00-35.76 7.64l-42 42 55.19 55.18z"/>
    <path fill="#37BF6E" d="M227.135 111.727l31.711-31.67a14.85 14.85 0 00-21-21l-8.42 8.42-23.28 23.25M275.906 160.487l31.66-31.67a14.849 14.849 0 00-.106-20.894 14.85 14.85 0 00-20.894-.106l-8.41 8.41-23.271 23.27"/>
    <path fill="#4285F4" d="M255.715 76.977a14.847 14.847 0 00-.105-20.894 14.85 14.85 0 00-20.895-.106l-8.409 8.4-24.14 24.19-4.391 4.39a2.66 2.66 0 000 3.76l17.211 17.24a2.668 2.668 0 003.759 0l4.39-4.39 32.58-32.59zM310.845 132.037a14.845 14.845 0 00-.105-20.894 14.85 14.85 0 00-20.895-.106l-8.41 8.41-24.19 24.19-4.4 4.39a2.662 2.662 0 000 3.76l17.24 17.23a2.638 2.638 0 002.891.578c.322-.134.614-.33.859-.578l4.4-4.38 32.61-32.6z"/>
    <path fill="#F1D949" d="M44.78 108.56a4.78 4.78 0 100-9.56 4.78 4.78 0 000 9.56zM53.04 263.99a4.78 4.78 0 100-9.56 4.78 4.78 0 000 9.56zM306.78 240.56a4.78 4.78 0 100-9.56 4.78 4.78 0 000 9.56zM415.78 152.56a4.78 4.78 0 100-9.56 4.78 4.78 0 000 9.56zM375.78 68.56a4.78 4.78 0 100-9.56 4.78 4.78 0 000 9.56z"/>
    <path stroke="#1769E0" stroke-width="8" stroke-linejoin="round" stroke-linecap="round" d="M504.666 184.45a59.344 59.344 0 00-52.401 2.149 59.356 59.356 0 00-30.239 42.851h-.73a34.316 34.316 0 00-30.168 17.994 34.307 34.307 0 001.468 35.096M45 .51a50.51 50.51 0 0048.14 35.17A50.498 50.498 0 00141.41 0"/>
</svg>
